<svg width="1024" height="1024" viewBox="0 0 1024 1024" fill="none" xmlns="http://www.w3.org/2000/svg">
<rect width="1024" height="1024" rx="64" fill="#002BFF"/>
<path d="M272 271.752C272 260.15 275.763 250.639 283.289 243.219C290.756 235.74 300.326 232 312 232H512C523.674 232 533.244 235.74 540.711 243.219C548.237 250.639 552 260.15 552 271.752V709.019H672V510.261C672 498.659 675.763 489.148 683.289 481.728C690.756 474.249 700.326 470.509 712 470.509H872C883.674 470.509 893.245 474.249 900.711 481.728C908.237 489.148 912 498.659 912 510.261C912 521.862 908.237 531.373 900.711 538.794C893.245 546.273 883.674 550.012 872 550.012H752V748.77C752 760.372 748.237 769.883 740.711 777.303C733.245 784.782 723.674 788.522 712 788.522H512C500.326 788.522 490.756 784.782 483.289 777.303C475.763 769.883 472 760.372 472 748.77V311.503H352V510.261C352 521.862 348.237 531.373 340.711 538.794C333.244 546.273 323.674 550.012 312 550.012H152C140.326 550.012 130.756 546.273 123.289 538.794C115.763 531.373 112 521.862 112 510.261C112 498.659 115.763 489.148 123.289 481.728C130.756 474.249 140.326 470.509 152 470.509H272V271.752Z" fill="white" stroke="white" stroke-width="25" stroke-miterlimit="1.30541"/>
</svg>
