<svg width="169" height="32" viewBox="0 0 169 32" fill="none" xmlns="http://www.w3.org/2000/svg">
<path d="M9.2 2.28571C9.2 1.61862 9.41637 1.07175 9.84911 0.645079C10.2784 0.215026 10.8287 0 11.5 0H23C23.6713 0 24.2216 0.215026 24.6509 0.645079C25.0836 1.07175 25.3 1.61862 25.3 2.28571V27.4286H32.2V16C32.2 15.3329 32.4164 14.786 32.8491 14.3594C33.2784 13.9293 33.8287 13.7143 34.5 13.7143H43.7C44.3713 13.7143 44.9216 13.9293 45.3509 14.3594C45.7836 14.786 46 15.3329 46 16C46 16.6671 45.7836 17.214 45.3509 17.6406C44.9216 18.0707 44.3713 18.2857 43.7 18.2857H36.8V29.7143C36.8 30.3814 36.5836 30.9283 36.1509 31.3549C35.7216 31.785 35.1713 32 34.5 32H23C22.3287 32 21.7784 31.785 21.3491 31.3549C20.9164 30.9283 20.7 30.3814 20.7 29.7143V4.57143H13.8V16C13.8 16.6671 13.5836 17.214 13.1509 17.6406C12.7216 18.0707 12.1713 18.2857 11.5 18.2857H2.3C1.62874 18.2857 1.07844 18.0707 0.649111 17.6406C0.21637 17.214 0 16.6671 0 16C0 15.3329 0.21637 14.786 0.649111 14.3594C1.07844 13.9293 1.62874 13.7143 2.3 13.7143H9.2V2.28571Z" fill="white" fill-opacity="0.8"/>
<path d="M62.9858 12.5653C62.9176 11.8778 62.625 11.3437 62.108 10.9631C61.5909 10.5824 60.8892 10.392 60.0028 10.392C59.4006 10.392 58.892 10.4773 58.4773 10.6477C58.0625 10.8125 57.7443 11.0426 57.5227 11.3381C57.3068 11.6335 57.1989 11.9688 57.1989 12.3438C57.1875 12.6562 57.2528 12.929 57.3949 13.1619C57.5426 13.3949 57.7443 13.5966 58 13.767C58.2557 13.9318 58.5511 14.0767 58.8864 14.2017C59.2216 14.321 59.5795 14.4233 59.9602 14.5085L61.5284 14.8835C62.2898 15.054 62.9886 15.2812 63.625 15.5653C64.2614 15.8494 64.8125 16.1989 65.2784 16.6136C65.7443 17.0284 66.1051 17.517 66.3608 18.0795C66.6222 18.642 66.7557 19.2869 66.7614 20.0142C66.7557 21.0824 66.483 22.0085 65.9432 22.7926C65.4091 23.571 64.6364 24.1761 63.625 24.608C62.6193 25.0341 61.4063 25.2472 59.9858 25.2472C58.5767 25.2472 57.3494 25.0312 56.304 24.5994C55.2642 24.1676 54.4517 23.5284 53.8665 22.6818C53.2869 21.8295 52.983 20.7756 52.9545 19.5199H56.5256C56.5653 20.1051 56.733 20.5937 57.0284 20.9858C57.3295 21.3722 57.7301 21.6648 58.2301 21.8636C58.7358 22.0568 59.3068 22.1534 59.9432 22.1534C60.5682 22.1534 61.1108 22.0625 61.571 21.8807C62.0369 21.6989 62.3977 21.446 62.6534 21.1222C62.9091 20.7983 63.0369 20.4261 63.0369 20.0057C63.0369 19.6136 62.9205 19.2841 62.6875 19.017C62.4602 18.75 62.125 18.5227 61.6818 18.3352C61.2443 18.1477 60.7074 17.9773 60.071 17.8239L58.1705 17.3466C56.6989 16.9886 55.5369 16.429 54.6847 15.6676C53.8324 14.9062 53.4091 13.8807 53.4148 12.5909C53.4091 11.5341 53.6903 10.6108 54.2585 9.82102C54.8324 9.03125 55.6193 8.41477 56.6193 7.97159C57.6193 7.52841 58.7557 7.30682 60.0284 7.30682C61.3239 7.30682 62.4545 7.52841 63.4205 7.97159C64.392 8.41477 65.1477 9.03125 65.6875 9.82102C66.2273 10.6108 66.5057 11.5256 66.5227 12.5653H62.9858ZM74.5902 25.2557C73.2663 25.2557 72.1214 24.9744 71.1555 24.4119C70.1953 23.8437 69.4538 23.054 68.9311 22.0426C68.4084 21.0256 68.147 19.8466 68.147 18.5057C68.147 17.1534 68.4084 15.9716 68.9311 14.9602C69.4538 13.9432 70.1953 13.1534 71.1555 12.5909C72.1214 12.0227 73.2663 11.7386 74.5902 11.7386C75.9141 11.7386 77.0561 12.0227 78.0163 12.5909C78.9822 13.1534 79.7266 13.9432 80.2493 14.9602C80.772 15.9716 81.0334 17.1534 81.0334 18.5057C81.0334 19.8466 80.772 21.0256 80.2493 22.0426C79.7266 23.054 78.9822 23.8437 78.0163 24.4119C77.0561 24.9744 75.9141 25.2557 74.5902 25.2557ZM74.6072 22.4432C75.2095 22.4432 75.7124 22.2727 76.1158 21.9318C76.5192 21.5852 76.8232 21.1136 77.0277 20.517C77.2379 19.9205 77.343 19.2415 77.343 18.4801C77.343 17.7188 77.2379 17.0398 77.0277 16.4432C76.8232 15.8466 76.5192 15.375 76.1158 15.0284C75.7124 14.6818 75.2095 14.5085 74.6072 14.5085C73.9993 14.5085 73.4879 14.6818 73.0732 15.0284C72.6641 15.375 72.3544 15.8466 72.1442 16.4432C71.9396 17.0398 71.8374 17.7188 71.8374 18.4801C71.8374 19.2415 71.9396 19.9205 72.1442 20.517C72.3544 21.1136 72.6641 21.5852 73.0732 21.9318C73.4879 22.2727 73.9993 22.4432 74.6072 22.4432ZM91.2891 19.4261V11.9091H94.9197V25H91.4339V22.6222H91.2976C91.0021 23.3892 90.5107 24.0057 89.8232 24.4716C89.1413 24.9375 88.3089 25.1705 87.326 25.1705C86.451 25.1705 85.6811 24.9716 85.0163 24.5739C84.3516 24.1761 83.8317 23.6108 83.4567 22.8778C83.0874 22.1449 82.8999 21.267 82.8942 20.2443V11.9091H86.5249V19.5966C86.5305 20.3693 86.7379 20.9801 87.147 21.429C87.5561 21.8778 88.1044 22.1023 88.7919 22.1023C89.2294 22.1023 89.6385 22.0028 90.0192 21.804C90.3999 21.5994 90.7067 21.2983 90.9396 20.9006C91.1783 20.5028 91.2947 20.0114 91.2891 19.4261ZM100.955 17.4318V25H97.3239V11.9091H100.784V14.2188H100.938C101.227 13.4574 101.713 12.8551 102.395 12.4119C103.077 11.9631 103.903 11.7386 104.875 11.7386C105.784 11.7386 106.577 11.9375 107.253 12.3352C107.929 12.733 108.455 13.3011 108.83 14.0398C109.205 14.7727 109.392 15.6477 109.392 16.6648V25H105.761V17.3125C105.767 16.5114 105.563 15.8864 105.148 15.4375C104.733 14.983 104.162 14.7557 103.435 14.7557C102.946 14.7557 102.514 14.8608 102.139 15.071C101.77 15.2812 101.48 15.5881 101.27 15.9915C101.065 16.3892 100.96 16.8693 100.955 17.4318ZM116.577 25.2131C115.583 25.2131 114.683 24.9574 113.876 24.446C113.075 23.929 112.438 23.1705 111.967 22.1705C111.501 21.1648 111.268 19.9318 111.268 18.4716C111.268 16.9716 111.509 15.7244 111.992 14.7301C112.475 13.7301 113.117 12.983 113.918 12.4886C114.725 11.9886 115.609 11.7386 116.569 11.7386C117.302 11.7386 117.913 11.8636 118.401 12.1136C118.896 12.358 119.293 12.6648 119.594 13.0341C119.901 13.3977 120.134 13.7557 120.293 14.108H120.404V7.54545H124.026V25H120.447V22.9034H120.293C120.123 23.267 119.881 23.6278 119.569 23.9858C119.262 24.3381 118.862 24.6307 118.367 24.8636C117.879 25.0966 117.282 25.2131 116.577 25.2131ZM117.728 22.3239C118.313 22.3239 118.808 22.1648 119.211 21.8466C119.62 21.5227 119.933 21.071 120.148 20.4915C120.37 19.9119 120.481 19.233 120.481 18.4545C120.481 17.6761 120.373 17 120.157 16.4261C119.941 15.8523 119.629 15.4091 119.219 15.0966C118.81 14.7841 118.313 14.6278 117.728 14.6278C117.131 14.6278 116.629 14.7898 116.219 15.1136C115.81 15.4375 115.501 15.8864 115.29 16.4602C115.08 17.0341 114.975 17.6989 114.975 18.4545C114.975 19.2159 115.08 19.8892 115.29 20.4744C115.506 21.054 115.816 21.5085 116.219 21.8381C116.629 22.1619 117.131 22.3239 117.728 22.3239ZM136.048 12.5653C135.98 11.8778 135.688 11.3437 135.17 10.9631C134.653 10.5824 133.952 10.392 133.065 10.392C132.463 10.392 131.955 10.4773 131.54 10.6477C131.125 10.8125 130.807 11.0426 130.585 11.3381C130.369 11.6335 130.261 11.9688 130.261 12.3438C130.25 12.6562 130.315 12.929 130.457 13.1619C130.605 13.3949 130.807 13.5966 131.062 13.767C131.318 13.9318 131.614 14.0767 131.949 14.2017C132.284 14.321 132.642 14.4233 133.023 14.5085L134.591 14.8835C135.352 15.054 136.051 15.2812 136.688 15.5653C137.324 15.8494 137.875 16.1989 138.341 16.6136C138.807 17.0284 139.168 17.517 139.423 18.0795C139.685 18.642 139.818 19.2869 139.824 20.0142C139.818 21.0824 139.545 22.0085 139.006 22.7926C138.472 23.571 137.699 24.1761 136.688 24.608C135.682 25.0341 134.469 25.2472 133.048 25.2472C131.639 25.2472 130.412 25.0312 129.366 24.5994C128.327 24.1676 127.514 23.5284 126.929 22.6818C126.349 21.8295 126.045 20.7756 126.017 19.5199H129.588C129.628 20.1051 129.795 20.5937 130.091 20.9858C130.392 21.3722 130.793 21.6648 131.293 21.8636C131.798 22.0568 132.369 22.1534 133.006 22.1534C133.631 22.1534 134.173 22.0625 134.634 21.8807C135.099 21.6989 135.46 21.446 135.716 21.1222C135.972 20.7983 136.099 20.4261 136.099 20.0057C136.099 19.6136 135.983 19.2841 135.75 19.017C135.523 18.75 135.188 18.5227 134.744 18.3352C134.307 18.1477 133.77 17.9773 133.134 17.8239L131.233 17.3466C129.761 16.9886 128.599 16.429 127.747 15.6676C126.895 14.9062 126.472 13.8807 126.477 12.5909C126.472 11.5341 126.753 10.6108 127.321 9.82102C127.895 9.03125 128.682 8.41477 129.682 7.97159C130.682 7.52841 131.818 7.30682 133.091 7.30682C134.386 7.30682 135.517 7.52841 136.483 7.97159C137.455 8.41477 138.21 9.03125 138.75 9.82102C139.29 10.6108 139.568 11.5256 139.585 12.5653H136.048ZM145.028 21.233L145.036 16.8778H145.565L149.758 11.9091H153.925L148.292 18.4886H147.431L145.028 21.233ZM141.738 25V7.54545H145.369V25H141.738ZM149.92 25L146.067 19.2983L148.488 16.733L154.173 25H149.92ZM157.659 29.9091C157.199 29.9091 156.767 29.8722 156.364 29.7983C155.966 29.7301 155.636 29.642 155.375 29.5341L156.193 26.8239C156.619 26.9545 157.003 27.0256 157.344 27.0369C157.69 27.0483 157.989 26.9688 158.239 26.7983C158.494 26.6278 158.702 26.3381 158.861 25.929L159.074 25.375L154.378 11.9091H158.196L160.906 21.5227H161.043L163.778 11.9091H167.622L162.534 26.4148C162.29 27.1193 161.957 27.733 161.537 28.2557C161.122 28.7841 160.597 29.1903 159.96 29.4744C159.324 29.7642 158.557 29.9091 157.659 29.9091Z" fill="white"/>
</svg>
